<svg width="79" height="28" viewBox="0 0 79 28" fill="none" xmlns="http://www.w3.org/2000/svg">
<g filter="url(#filter0_d_58_3)">
<path d="M73 0H6C4.89543 0 4 0.89543 4 2V18C4 19.1046 4.89543 20 6 20H73C74.1046 20 75 19.1046 75 18V2C75 0.89543 74.1046 0 73 0Z" fill="white"/>
</g>
<path d="M21.2027 5.60089C20.0804 4.47589 18.5857 3.85714 16.9973 3.85714C13.7187 3.85714 11.0509 6.525 11.0509 9.80357C11.0509 10.8509 11.3241 11.8741 11.8438 12.7768L11 15.8571L14.1527 15.0295C15.0205 15.5036 15.9982 15.7527 16.9946 15.7527H16.9973C20.2732 15.7527 23 13.0848 23 9.80625C23 8.21786 22.325 6.72589 21.2027 5.60089ZM16.9973 14.7509C16.108 14.7509 15.2375 14.5125 14.4795 14.0625L14.3 13.9554L12.4304 14.4455L12.9286 12.6214L12.8107 12.4339C12.3152 11.6464 12.0554 10.7384 12.0554 9.80357C12.0554 7.07947 14.2732 4.86161 17 4.86161C18.3205 4.86161 19.5607 5.37589 20.4929 6.31071C21.425 7.24554 21.9982 8.48572 21.9955 9.80625C21.9955 12.533 19.7214 14.7509 16.9973 14.7509ZM19.708 11.0491C19.5607 10.9741 18.8295 10.6152 18.6929 10.567C18.5563 10.5161 18.4571 10.492 18.358 10.642C18.2589 10.792 17.975 11.1241 17.8866 11.2259C17.8009 11.325 17.7125 11.3384 17.5652 11.2634C16.692 10.8268 16.1188 10.4839 15.5429 9.49554C15.3902 9.23304 15.6955 9.25179 15.9795 8.68393C16.0277 8.58482 16.0036 8.49911 15.9661 8.42411C15.9286 8.34911 15.6312 7.61786 15.508 7.32054C15.3875 7.03125 15.2643 7.07143 15.1732 7.06607C15.0875 7.06072 14.9884 7.06072 14.8893 7.06072C14.7902 7.06072 14.6295 7.09822 14.4929 7.24554C14.3562 7.39554 13.9732 7.75447 13.9732 8.48572C13.9732 9.21697 14.5063 9.92411 14.5786 10.0232C14.6536 10.1223 15.6259 11.6223 17.1179 12.2679C18.0607 12.675 18.4304 12.7098 18.9018 12.6402C19.1884 12.5973 19.7804 12.2813 19.9036 11.933C20.0268 11.5848 20.0268 11.2875 19.9893 11.2259C19.9545 11.1589 19.8554 11.1214 19.708 11.0491Z" fill="black"/>
<path d="M34.5029 12.042L35.3525 8.73438H35.7979L35.748 9.58691L34.8398 13H34.377L34.5029 12.042ZM33.8672 8.73438L34.5557 12.0156L34.6172 13H34.125L33.1377 8.73438H33.8672ZM36.7617 12.0068L37.4414 8.73438H38.1738L37.1865 13H36.6943L36.7617 12.0068ZM35.9707 8.73438L36.8115 12.0508L36.9346 13H36.4717L35.5781 9.58691L35.5312 8.73438H35.9707ZM39.3457 8.5V13H38.6426V8.5H39.3457ZM39.2227 11.2979L38.9941 11.2949C38.9961 11.0762 39.0264 10.874 39.085 10.6885C39.1455 10.5029 39.2295 10.3418 39.3369 10.2051C39.4463 10.0664 39.5771 9.95996 39.7295 9.88574C39.8818 9.80957 40.0508 9.77148 40.2363 9.77148C40.3926 9.77148 40.5332 9.79297 40.6582 9.83594C40.7852 9.87891 40.8945 9.94824 40.9863 10.0439C41.0781 10.1377 41.1475 10.2607 41.1943 10.4131C41.2432 10.5635 41.2676 10.7471 41.2676 10.9639V13H40.5586V10.958C40.5586 10.8057 40.5361 10.6846 40.4912 10.5947C40.4482 10.5049 40.3848 10.4404 40.3008 10.4014C40.2168 10.3604 40.1143 10.3398 39.9932 10.3398C39.8662 10.3398 39.7539 10.3652 39.6562 10.416C39.5605 10.4668 39.4805 10.5361 39.416 10.624C39.3516 10.7119 39.3027 10.8135 39.2695 10.9287C39.2383 11.0439 39.2227 11.167 39.2227 11.2979ZM43.7695 12.3643V10.8525C43.7695 10.7393 43.749 10.6416 43.708 10.5596C43.667 10.4775 43.6045 10.4141 43.5205 10.3691C43.4385 10.3242 43.335 10.3018 43.21 10.3018C43.0947 10.3018 42.9951 10.3213 42.9111 10.3604C42.8271 10.3994 42.7617 10.4521 42.7148 10.5186C42.668 10.585 42.6445 10.6602 42.6445 10.7441H41.9414C41.9414 10.6191 41.9717 10.498 42.0322 10.3809C42.0928 10.2637 42.1807 10.1592 42.2959 10.0674C42.4111 9.97559 42.5488 9.90332 42.709 9.85059C42.8691 9.79785 43.0488 9.77148 43.248 9.77148C43.4863 9.77148 43.6973 9.81152 43.8809 9.8916C44.0664 9.97168 44.2119 10.0928 44.3174 10.2549C44.4248 10.415 44.4785 10.6162 44.4785 10.8584V12.2676C44.4785 12.4121 44.4883 12.542 44.5078 12.6572C44.5293 12.7705 44.5596 12.8691 44.5986 12.9531V13H43.875C43.8418 12.9238 43.8154 12.8271 43.7959 12.71C43.7783 12.5908 43.7695 12.4756 43.7695 12.3643ZM43.8721 11.0723L43.8779 11.5088H43.3711C43.2402 11.5088 43.125 11.5215 43.0254 11.5469C42.9258 11.5703 42.8428 11.6055 42.7764 11.6523C42.71 11.6992 42.6602 11.7559 42.627 11.8223C42.5938 11.8887 42.5771 11.9639 42.5771 12.0479C42.5771 12.1318 42.5967 12.209 42.6357 12.2793C42.6748 12.3477 42.7314 12.4014 42.8057 12.4404C42.8818 12.4795 42.9736 12.499 43.0811 12.499C43.2256 12.499 43.3516 12.4697 43.459 12.4111C43.5684 12.3506 43.6543 12.2773 43.7168 12.1914C43.7793 12.1035 43.8125 12.0205 43.8164 11.9424L44.0449 12.2559C44.0215 12.3359 43.9814 12.4219 43.9248 12.5137C43.8682 12.6055 43.7939 12.6934 43.7021 12.7773C43.6123 12.8594 43.5039 12.9268 43.377 12.9795C43.252 13.0322 43.1074 13.0586 42.9434 13.0586C42.7363 13.0586 42.5518 13.0176 42.3896 12.9355C42.2275 12.8516 42.1006 12.7393 42.0088 12.5986C41.917 12.4561 41.8711 12.2949 41.8711 12.1152C41.8711 11.9473 41.9023 11.7988 41.9648 11.6699C42.0293 11.5391 42.123 11.4297 42.2461 11.3418C42.3711 11.2539 42.5234 11.1875 42.7031 11.1426C42.8828 11.0957 43.0879 11.0723 43.3184 11.0723H43.8721ZM46.6699 9.83008V10.3457H44.8828V9.83008H46.6699ZM45.3984 9.05371H46.1045V12.124C46.1045 12.2217 46.1182 12.2969 46.1455 12.3496C46.1748 12.4004 46.2148 12.4346 46.2656 12.4521C46.3164 12.4697 46.376 12.4785 46.4443 12.4785C46.4932 12.4785 46.54 12.4756 46.585 12.4697C46.6299 12.4639 46.666 12.458 46.6934 12.4521L46.6963 12.9912C46.6377 13.0088 46.5693 13.0244 46.4912 13.0381C46.415 13.0518 46.3271 13.0586 46.2275 13.0586C46.0654 13.0586 45.9219 13.0303 45.7969 12.9736C45.6719 12.915 45.5742 12.8203 45.5039 12.6895C45.4336 12.5586 45.3984 12.3848 45.3984 12.168V9.05371ZM48.9932 12.1416C48.9932 12.0713 48.9756 12.0078 48.9404 11.9512C48.9053 11.8926 48.8379 11.8398 48.7383 11.793C48.6406 11.7461 48.4961 11.7031 48.3047 11.6641C48.1367 11.627 47.9824 11.583 47.8418 11.5322C47.7031 11.4795 47.584 11.416 47.4844 11.3418C47.3848 11.2676 47.3076 11.1797 47.2529 11.0781C47.1982 10.9766 47.1709 10.8594 47.1709 10.7266C47.1709 10.5977 47.1992 10.4756 47.2559 10.3604C47.3125 10.2451 47.3936 10.1436 47.499 10.0557C47.6045 9.96777 47.7324 9.89844 47.8828 9.84766C48.0352 9.79688 48.2051 9.77148 48.3926 9.77148C48.6582 9.77148 48.8857 9.81641 49.0752 9.90625C49.2666 9.99414 49.4131 10.1143 49.5146 10.2666C49.6162 10.417 49.667 10.5869 49.667 10.7764H48.9609C48.9609 10.6924 48.9395 10.6143 48.8965 10.542C48.8555 10.4678 48.793 10.4082 48.709 10.3633C48.625 10.3164 48.5195 10.293 48.3926 10.293C48.2715 10.293 48.1709 10.3125 48.0908 10.3516C48.0127 10.3887 47.9541 10.4375 47.915 10.498C47.8779 10.5586 47.8594 10.625 47.8594 10.6973C47.8594 10.75 47.8691 10.7979 47.8887 10.8408C47.9102 10.8818 47.9453 10.9199 47.9941 10.9551C48.043 10.9883 48.1094 11.0195 48.1934 11.0488C48.2793 11.0781 48.3867 11.1064 48.5156 11.1338C48.7578 11.1846 48.9658 11.25 49.1396 11.3301C49.3154 11.4082 49.4502 11.5098 49.5439 11.6348C49.6377 11.7578 49.6846 11.9141 49.6846 12.1035C49.6846 12.2441 49.6543 12.373 49.5938 12.4902C49.5352 12.6055 49.4492 12.7061 49.3359 12.792C49.2227 12.876 49.0869 12.9414 48.9287 12.9883C48.7725 13.0352 48.5967 13.0586 48.4014 13.0586C48.1143 13.0586 47.8711 13.0078 47.6719 12.9062C47.4727 12.8027 47.3213 12.6709 47.2178 12.5107C47.1162 12.3486 47.0654 12.1807 47.0654 12.0068H47.748C47.7559 12.1377 47.792 12.2422 47.8564 12.3203C47.9229 12.3965 48.0049 12.4521 48.1025 12.4873C48.2021 12.5205 48.3047 12.5371 48.4102 12.5371C48.5371 12.5371 48.6436 12.5205 48.7295 12.4873C48.8154 12.4521 48.8809 12.4053 48.9258 12.3467C48.9707 12.2861 48.9932 12.2178 48.9932 12.1416ZM52.0898 12.3643V10.8525C52.0898 10.7393 52.0693 10.6416 52.0283 10.5596C51.9873 10.4775 51.9248 10.4141 51.8408 10.3691C51.7588 10.3242 51.6553 10.3018 51.5303 10.3018C51.415 10.3018 51.3154 10.3213 51.2314 10.3604C51.1475 10.3994 51.082 10.4521 51.0352 10.5186C50.9883 10.585 50.9648 10.6602 50.9648 10.7441H50.2617C50.2617 10.6191 50.292 10.498 50.3525 10.3809C50.4131 10.2637 50.501 10.1592 50.6162 10.0674C50.7314 9.97559 50.8691 9.90332 51.0293 9.85059C51.1895 9.79785 51.3691 9.77148 51.5684 9.77148C51.8066 9.77148 52.0176 9.81152 52.2012 9.8916C52.3867 9.97168 52.5322 10.0928 52.6377 10.2549C52.7451 10.415 52.7988 10.6162 52.7988 10.8584V12.2676C52.7988 12.4121 52.8086 12.542 52.8281 12.6572C52.8496 12.7705 52.8799 12.8691 52.9189 12.9531V13H52.1953C52.1621 12.9238 52.1357 12.8271 52.1162 12.71C52.0986 12.5908 52.0898 12.4756 52.0898 12.3643ZM52.1924 11.0723L52.1982 11.5088H51.6914C51.5605 11.5088 51.4453 11.5215 51.3457 11.5469C51.2461 11.5703 51.1631 11.6055 51.0967 11.6523C51.0303 11.6992 50.9805 11.7559 50.9473 11.8223C50.9141 11.8887 50.8975 11.9639 50.8975 12.0479C50.8975 12.1318 50.917 12.209 50.9561 12.2793C50.9951 12.3477 51.0518 12.4014 51.126 12.4404C51.2021 12.4795 51.2939 12.499 51.4014 12.499C51.5459 12.499 51.6719 12.4697 51.7793 12.4111C51.8887 12.3506 51.9746 12.2773 52.0371 12.1914C52.0996 12.1035 52.1328 12.0205 52.1367 11.9424L52.3652 12.2559C52.3418 12.3359 52.3018 12.4219 52.2451 12.5137C52.1885 12.6055 52.1143 12.6934 52.0225 12.7773C51.9326 12.8594 51.8242 12.9268 51.6973 12.9795C51.5723 13.0322 51.4277 13.0586 51.2637 13.0586C51.0566 13.0586 50.8721 13.0176 50.71 12.9355C50.5479 12.8516 50.4209 12.7393 50.3291 12.5986C50.2373 12.4561 50.1914 12.2949 50.1914 12.1152C50.1914 11.9473 50.2227 11.7988 50.2852 11.6699C50.3496 11.5391 50.4434 11.4297 50.5664 11.3418C50.6914 11.2539 50.8438 11.1875 51.0234 11.1426C51.2031 11.0957 51.4082 11.0723 51.6387 11.0723H52.1924ZM54.2461 10.4395V14.2188H53.54V9.83008H54.1904L54.2461 10.4395ZM56.3115 11.3857V11.4473C56.3115 11.6777 56.2842 11.8916 56.2295 12.0889C56.1768 12.2842 56.0977 12.4551 55.9922 12.6016C55.8887 12.7461 55.7607 12.8584 55.6084 12.9385C55.4561 13.0186 55.2803 13.0586 55.0811 13.0586C54.8838 13.0586 54.7109 13.0225 54.5625 12.9502C54.416 12.876 54.292 12.7715 54.1904 12.6367C54.0889 12.502 54.0068 12.3438 53.9443 12.1621C53.8838 11.9785 53.8408 11.7773 53.8154 11.5586V11.3213C53.8408 11.0889 53.8838 10.8779 53.9443 10.6885C54.0068 10.499 54.0889 10.3359 54.1904 10.1992C54.292 10.0625 54.416 9.95703 54.5625 9.88281C54.709 9.80859 54.8799 9.77148 55.0752 9.77148C55.2744 9.77148 55.4512 9.81055 55.6055 9.88867C55.7598 9.96484 55.8896 10.0742 55.9951 10.2168C56.1006 10.3574 56.1797 10.5273 56.2324 10.7266C56.2852 10.9238 56.3115 11.1436 56.3115 11.3857ZM55.6055 11.4473V11.3857C55.6055 11.2393 55.5918 11.1035 55.5645 10.9785C55.5371 10.8516 55.4941 10.7402 55.4355 10.6445C55.377 10.5488 55.3018 10.4746 55.21 10.4219C55.1201 10.3672 55.0117 10.3398 54.8848 10.3398C54.7598 10.3398 54.6523 10.3613 54.5625 10.4043C54.4727 10.4453 54.3975 10.5029 54.3369 10.5771C54.2764 10.6514 54.2295 10.7383 54.1963 10.8379C54.1631 10.9355 54.1396 11.042 54.126 11.1572V11.7256C54.1494 11.8662 54.1895 11.9951 54.2461 12.1123C54.3027 12.2295 54.3828 12.3232 54.4863 12.3936C54.5918 12.4619 54.7266 12.4961 54.8906 12.4961C55.0176 12.4961 55.126 12.4688 55.2158 12.4141C55.3057 12.3594 55.3789 12.2842 55.4355 12.1885C55.4941 12.0908 55.5371 11.9785 55.5645 11.8516C55.5918 11.7246 55.6055 11.5898 55.6055 11.4473ZM57.6211 10.4395V14.2188H56.915V9.83008H57.5654L57.6211 10.4395ZM59.6865 11.3857V11.4473C59.6865 11.6777 59.6592 11.8916 59.6045 12.0889C59.5518 12.2842 59.4727 12.4551 59.3672 12.6016C59.2637 12.7461 59.1357 12.8584 58.9834 12.9385C58.8311 13.0186 58.6553 13.0586 58.4561 13.0586C58.2588 13.0586 58.0859 13.0225 57.9375 12.9502C57.791 12.876 57.667 12.7715 57.5654 12.6367C57.4639 12.502 57.3818 12.3438 57.3193 12.1621C57.2588 11.9785 57.2158 11.7773 57.1904 11.5586V11.3213C57.2158 11.0889 57.2588 10.8779 57.3193 10.6885C57.3818 10.499 57.4639 10.3359 57.5654 10.1992C57.667 10.0625 57.791 9.95703 57.9375 9.88281C58.084 9.80859 58.2549 9.77148 58.4502 9.77148C58.6494 9.77148 58.8262 9.81055 58.9805 9.88867C59.1348 9.96484 59.2646 10.0742 59.3701 10.2168C59.4756 10.3574 59.5547 10.5273 59.6074 10.7266C59.6602 10.9238 59.6865 11.1436 59.6865 11.3857ZM58.9805 11.4473V11.3857C58.9805 11.2393 58.9668 11.1035 58.9395 10.9785C58.9121 10.8516 58.8691 10.7402 58.8105 10.6445C58.752 10.5488 58.6768 10.4746 58.585 10.4219C58.4951 10.3672 58.3867 10.3398 58.2598 10.3398C58.1348 10.3398 58.0273 10.3613 57.9375 10.4043C57.8477 10.4453 57.7725 10.5029 57.7119 10.5771C57.6514 10.6514 57.6045 10.7383 57.5713 10.8379C57.5381 10.9355 57.5146 11.042 57.501 11.1572V11.7256C57.5244 11.8662 57.5645 11.9951 57.6211 12.1123C57.6777 12.2295 57.7578 12.3232 57.8613 12.3936C57.9668 12.4619 58.1016 12.4961 58.2656 12.4961C58.3926 12.4961 58.501 12.4688 58.5908 12.4141C58.6807 12.3594 58.7539 12.2842 58.8105 12.1885C58.8691 12.0908 58.9121 11.9785 58.9395 11.8516C58.9668 11.7246 58.9805 11.5898 58.9805 11.4473Z" fill="black"/>
<defs>
<filter id="filter0_d_58_3" x="0" y="0" width="79" height="28" filterUnits="userSpaceOnUse" color-interpolation-filters="sRGB">
<feFlood flood-opacity="0" result="BackgroundImageFix"/>
<feColorMatrix in="SourceAlpha" type="matrix" values="0 0 0 0 0 0 0 0 0 0 0 0 0 0 0 0 0 0 127 0" result="hardAlpha"/>
<feOffset dy="4"/>
<feGaussianBlur stdDeviation="2"/>
<feColorMatrix type="matrix" values="0 0 0 0 0 0 0 0 0 0 0 0 0 0 0 0 0 0 0.25 0"/>
<feBlend mode="normal" in2="BackgroundImageFix" result="effect1_dropShadow_58_3"/>
<feBlend mode="normal" in="SourceGraphic" in2="effect1_dropShadow_58_3" result="shape"/>
</filter>
</defs>
</svg>
